<?xml version="1.0" encoding="UTF-8" standalone="no"?><!DOCTYPE svg PUBLIC "-//W3C//DTD SVG 1.1//EN" "http://www.w3.org/Graphics/SVG/1.1/DTD/svg11.dtd"><svg xmlns="http://www.w3.org/2000/svg" xmlns:xlink="http://www.w3.org/1999/xlink" version="1.1" width="150" height="150" viewBox="-2 -2 29 29">
<desc>Created with SVGMaker Editor 2.2.1</desc>
<defs>
</defs>
<path transform="translate(0,0)" style="stroke: rgb(255,106,0); stroke-linecap: round; stroke-linejoin: round; fill: none" vector-effect="non-scaling-stroke" stroke-linecap="round" d="M18.6616 22.1407L12.8896 22.1407M7.1176 16.8172L10.5808 19.479 7.1176 22.1407M2.5 22.9927L2.5 14.901C2.5 13.7084 2.5 13.1116 2.7517 12.6561 2.973 12.2555 3.326 11.9299 3.7604 11.7258 4.2542 11.4937 4.9013 11.4937 6.1943 11.4937L19.5854 11.4937C20.8784 11.4937 21.5241 11.4937 22.0179 11.7258 22.4523 11.9299 22.8065 12.2555 23.0278 12.6561 23.2792 13.1112 23.2792 13.7072 23.2792 14.8974L23.2792 22.9958C23.2792 24.186 23.2792 24.7812 23.0278 25.2362 22.8065 25.6369 22.4523 25.9635 22.0179 26.1676 21.5245 26.3995 20.8792 26.3995 19.5887 26.3995L6.1905 26.3995C4.9 26.3995 4.2538 26.3995 3.7604 26.1676 3.326 25.9635 2.973 25.6369 2.7517 25.2362 2.5 24.7807 2.5 24.1852 2.5 22.9927Z"/>
<path transform="translate(0,0)" style="stroke-width: 0; stroke-dasharray: ; stroke-linecap: round; fill: rgb(255,106,0)" vector-effect="non-scaling-stroke" stroke-linecap="round" d="M18.8538-0.0761C18.2114-0.0761 17.5748 0.0718 16.9966 0.3536 16.1096-0.6208 14.9244-1.2484 13.6356-1.4386 13.6352-1.4386 13.6349-1.4386 13.6345-1.4387 13.5677-1.4485 13.5007-1.4573 13.4334-1.4648 13.4314-1.465 13.4294-1.4653 13.4274-1.4655 13.3612-1.4727 13.2949-1.4789 13.2282-1.4839 13.22-1.4845 13.2118-1.4849 13.2035-1.4855 13.149-1.4893 13.0943-1.4924 13.0395-1.4946 13.0234-1.4953 13.0073-1.496 12.9912-1.4965 12.9282-1.4986 12.8651-1.5001 12.8018-1.5001 12.7385-1.5001 12.6754-1.4986 12.6124-1.4965 12.5963-1.496 12.5802-1.4953 12.5641-1.4947 12.5093-1.4924 12.4546-1.4894 12.4001-1.4855 12.3918-1.485 12.3835-1.4846 12.3754-1.4839 12.3087-1.479 12.2424-1.4728 12.1762-1.4655 12.1742-1.4653 12.1722-1.465 12.1702-1.4648 12.1029-1.4573 12.0359-1.4486 11.9691-1.4387 11.9687-1.4387 11.9684-1.4386 11.968-1.4386 10.6792-1.2484 9.494-0.6209 8.607 0.3536 8.0288 0.0718 7.3922-0.0761 6.7498-0.0761 4.4065-0.0761 2.5 1.8304 2.5 4.1737 2.5 5.6981 3.327 7.1034 4.6361 7.8561L4.6361 10.5817C4.6361 11.1583 5.1052 11.6274 5.6818 11.6274L19.9218 11.6274C20.4984 11.6274 20.9675 11.1583 20.9675 10.5817L20.9675 7.8561C22.2766 7.1034 23.1035 5.6981 23.1035 4.1737 23.1035 1.8304 21.1971-0.0761 18.8538-0.0761ZM14.2258 10.9599L11.3778 10.9599C10.9729 10.9599 10.6435 10.6306 10.6435 10.2257 10.6435 9.8208 10.9729 9.4915 11.3778 9.4915L14.2258 9.4915C14.6307 9.4915 14.96 9.8208 14.96 10.2257 14.96 10.6306 14.6307 10.9599 14.2258 10.9599ZM20.3 10.5817C20.3 10.7903 20.1304 10.9599 19.9218 10.9599L15.4192 10.9599C15.5512 10.7463 15.6275 10.4947 15.6275 10.2257 15.6275 9.4528 14.9987 8.8239 14.2258 8.8239L11.3778 8.8239C10.6049 8.8239 9.9761 9.4528 9.9761 10.2257 9.9761 10.4947 10.0524 10.7463 10.1844 10.9599L5.6818 10.9599C5.4732 10.9599 5.3035 10.7903 5.3035 10.5817L5.3035 8.0674 20.3 8.0674 20.3 10.5817ZM20.4025 7.3999L17.4693 7.3999C17.5979 7.2143 17.7155 7.0211 17.821 6.8216 17.9072 6.6587 17.8449 6.4567 17.6819 6.3706 17.5189 6.2845 17.317 6.3468 17.2308 6.5097 17.0634 6.8265 16.8616 7.1253 16.6299 7.3999L8.9737 7.3999C8.7421 7.1253 8.5402 6.8265 8.3728 6.5097 8.2866 6.3467 8.0847 6.2844 7.9218 6.3706 7.7588 6.4567 7.6965 6.6586 7.7826 6.8216 7.8881 7.0211 8.0057 7.2142 8.1343 7.3999L5.2011 7.3999C3.9636 6.8048 3.1675 5.5464 3.1675 4.1737 3.1675 2.1984 4.7745 0.5914 6.7498 0.5914 7.2405 0.5914 7.7273 0.6944 8.1772 0.8907 7.9547 1.2041 7.7613 1.5426 7.6033 1.904 7.5295 2.0729 7.6065 2.2696 7.7754 2.3435 7.9442 2.4174 8.1411 2.3403 8.2149 2.1714 8.913 0.5748 10.3786-0.5275 12.0661-0.7783 12.0663-0.7783 12.0666-0.7783 12.0668-0.7783 12.1827-0.7956 12.2996-0.8085 12.4174-0.8176 12.43-0.8185 12.4426-0.8193 12.4553-0.8202 12.4993-0.8232 12.5435-0.8257 12.5877-0.8276 12.6029-0.8282 12.6181-0.8289 12.6333-0.8294 12.6893-0.8313 12.7455-0.8326 12.8018-0.8326 12.8582-0.8326 12.9144-0.8313 12.9704-0.8294 12.9856-0.8289 13.0008-0.8282 13.016-0.8276 13.0603-0.8257 13.1044-0.8232 13.1484-0.8202 13.161-0.8193 13.1736-0.8185 13.1863-0.8176 13.3041-0.8085 13.421-0.7956 13.5369-0.7783 13.5371-0.7783 13.5374-0.7783 13.5376-0.7783 15.2251-0.5275 16.6907 0.5748 17.3888 2.1714 17.4436 2.2968 17.5661 2.3715 17.6948 2.3715 17.7394 2.3715 17.7848 2.3625 17.8283 2.3435 17.9971 2.2696 18.0742 2.0729 18.0004 1.904 17.8424 1.5426 17.649 1.2041 17.4265 0.8907 17.8764 0.6944 18.3632 0.5914 18.8539 0.5914 20.8292 0.5914 22.4361 2.1984 22.4361 4.1737 22.4361 5.5464 21.64 6.8048 20.4025 7.3999Z"/>
</svg>